<svg width="903" height="404" viewBox="0 0 903 404" fill="none" xmlns="http://www.w3.org/2000/svg">
<path d="M638.029 323.86V287.368L799.024 32.6387H825.498V89.1656H807.61L685.97 281.643V284.505H902.776V323.86H638.029ZM810.472 398.99V312.769V295.775V32.6387H852.688V398.99H810.472Z" fill="white"/>
<path d="M451.276 404C424.324 404 401.368 396.666 382.406 381.997C363.445 367.21 348.955 345.803 338.938 317.779C328.92 289.634 323.912 255.647 323.912 215.815C323.912 176.223 328.92 142.414 338.938 114.389C349.074 86.2447 363.624 64.7788 382.585 49.9912C401.666 35.0843 424.563 27.6309 451.276 27.6309C477.989 27.6309 500.827 35.0843 519.788 49.9912C538.869 64.7788 553.418 86.2447 563.435 114.389C573.572 142.414 578.641 176.223 578.641 215.815C578.641 255.647 573.632 289.634 563.614 317.779C553.597 345.803 539.107 367.21 520.146 381.997C501.184 396.666 478.228 404 451.276 404ZM451.276 364.646C477.989 364.646 498.74 351.766 513.527 326.007C528.315 300.248 535.709 263.517 535.709 215.815C535.709 184.094 532.31 157.082 525.512 134.782C518.834 112.481 509.174 95.487 496.533 83.8C484.012 72.113 468.926 66.2695 451.276 66.2695C424.801 66.2695 404.111 79.3279 389.204 105.445C374.297 131.442 366.843 168.233 366.843 215.815C366.843 247.537 370.183 274.489 376.861 296.67C383.539 318.852 393.139 335.726 405.661 347.294C418.302 358.862 433.507 364.646 451.276 364.646Z" fill="white"/>
<path d="M0 323.86V287.368L160.994 32.6387H187.469V89.1656H169.581L47.9405 281.643V284.505H264.746V323.86H0ZM172.443 398.99V312.769V295.775V32.6387H214.659V398.99H172.443Z" fill="white"/>
<path d="M638.029 296.229V259.737L799.024 5.00781H825.498V61.5347H807.61L685.97 254.012V256.875H902.776V296.229H638.029ZM810.472 371.359V285.138V268.144V5.00781H852.688V371.359H810.472Z" fill="#CA8448"/>
<path d="M451.276 376.369C424.324 376.369 401.368 369.035 382.406 354.366C363.445 339.579 348.955 318.173 338.938 290.148C328.92 262.003 323.912 228.016 323.912 188.185C323.912 148.592 328.92 114.783 338.938 86.7581C349.074 58.6139 363.624 37.148 382.585 22.3603C401.666 7.45344 424.563 0 451.276 0C477.989 0 500.827 7.45344 519.788 22.3603C538.869 37.148 553.418 58.6139 563.435 86.7581C573.572 114.783 578.641 148.592 578.641 188.185C578.641 228.016 573.632 262.003 563.614 290.148C553.597 318.173 539.107 339.579 520.146 354.366C501.184 369.035 478.228 376.369 451.276 376.369ZM451.276 337.015C477.989 337.015 498.74 324.135 513.527 298.376C528.315 272.617 535.709 235.887 535.709 188.185C535.709 156.463 532.31 129.451 525.512 107.151C518.834 84.85 509.174 67.8561 496.533 56.1691C484.012 44.4822 468.926 38.6386 451.276 38.6386C424.801 38.6386 404.111 51.6971 389.204 77.8139C374.297 103.812 366.843 140.602 366.843 188.185C366.843 219.906 370.183 246.858 376.861 269.04C383.539 291.221 393.139 308.096 405.661 319.663C418.302 331.231 433.507 337.015 451.276 337.015Z" fill="#CA8448"/>
<path d="M0 296.229V259.737L160.994 5.00781H187.469V61.5347H169.581L47.9405 254.012V256.875H264.746V296.229H0ZM172.443 371.359V285.138V268.144V5.00781H214.659V371.359H172.443Z" fill="#CA8448"/>
</svg>
