<svg width="30" height="30" viewBox="0 0 30 30" fill="none" xmlns="http://www.w3.org/2000/svg">
<path d="M15.4692 14.0626V20.6251C15.4692 20.7494 15.4198 20.8687 15.3319 20.9566C15.244 21.0445 15.1248 21.0939 15.0005 21.0939C14.8762 21.0939 14.7569 21.0445 14.669 20.9566C14.5811 20.8687 14.5317 20.7494 14.5317 20.6251V14.0626C14.5317 13.9383 14.5811 13.8191 14.669 13.7312C14.7569 13.6432 14.8762 13.5939 15.0005 13.5939C15.1248 13.5939 15.244 13.6432 15.3319 13.7312C15.4198 13.8191 15.4692 13.9383 15.4692 14.0626ZM21.2349 13.5939C21.1736 13.5877 21.1117 13.5937 21.0528 13.6114C20.9939 13.6292 20.939 13.6584 20.8913 13.6973C20.8437 13.7363 20.8041 13.7842 20.775 13.8385C20.7459 13.8927 20.7277 13.9521 20.7216 14.0134L20.0653 20.5759C20.0585 20.6375 20.064 20.6999 20.0814 20.7593C20.0989 20.8188 20.128 20.8743 20.167 20.9224C20.206 20.9706 20.2542 21.0106 20.3087 21.04C20.3633 21.0694 20.4232 21.0877 20.4849 21.0939H20.5329C20.6495 21.0944 20.7622 21.0515 20.8488 20.9735C20.9355 20.8955 20.99 20.788 21.0017 20.672L21.6579 14.1095C21.6644 14.0478 21.6585 13.9854 21.6407 13.926C21.6229 13.8666 21.5934 13.8113 21.5541 13.7633C21.5147 13.7153 21.4663 13.6757 21.4115 13.6466C21.3567 13.6175 21.2966 13.5996 21.2349 13.5939ZM8.76611 13.5939C8.70486 13.6 8.64542 13.6182 8.59119 13.6473C8.53695 13.6764 8.48899 13.7159 8.45003 13.7636C8.41108 13.8113 8.38189 13.8661 8.36414 13.9251C8.34639 13.984 8.34042 14.0459 8.34657 14.1071L9.00282 20.6696C9.01448 20.7857 9.06897 20.8932 9.15565 20.9712C9.24232 21.0492 9.35496 21.0921 9.47157 21.0915H9.51962C9.58087 21.0854 9.64031 21.0672 9.69454 21.0381C9.74877 21.0089 9.79674 20.9694 9.83569 20.9218C9.87465 20.8741 9.90384 20.8192 9.92159 20.7603C9.93934 20.7013 9.94531 20.6395 9.93915 20.5782L9.2829 14.0157C9.27705 13.9539 9.25899 13.8939 9.22977 13.8392C9.20055 13.7844 9.16074 13.736 9.11267 13.6968C9.06459 13.6575 9.0092 13.6282 8.94971 13.6106C8.89022 13.5929 8.82781 13.5872 8.76611 13.5939ZM27.6567 10.3747L25.886 23.6239C25.8409 23.9615 25.6748 24.2713 25.4185 24.4956C25.1623 24.72 24.8333 24.8437 24.4927 24.8439H5.50829C5.16769 24.8437 4.83871 24.72 4.58245 24.4956C4.32619 24.2713 4.16006 23.9615 4.11493 23.6239L2.34423 10.3747C2.33616 10.3082 2.34245 10.2407 2.36266 10.1769C2.38288 10.113 2.41655 10.0542 2.46142 10.0044C2.50524 9.95419 2.55926 9.9139 2.61988 9.88621C2.68051 9.85853 2.74634 9.84409 2.81298 9.84386H8.2247L14.6489 2.5044C14.6929 2.45453 14.747 2.41458 14.8076 2.38722C14.8682 2.35985 14.934 2.3457 15.0005 2.3457C15.067 2.3457 15.1327 2.35985 15.1933 2.38722C15.254 2.41458 15.3081 2.45453 15.352 2.5044L21.7763 9.84386H27.188C27.2546 9.84409 27.3205 9.85853 27.3811 9.88621C27.4417 9.9139 27.4957 9.95419 27.5395 10.0044C27.5844 10.0542 27.6181 10.113 27.6383 10.1769C27.6585 10.2407 27.6648 10.3082 27.6567 10.3747ZM9.47157 9.84386H20.5294L15.0005 3.52394L9.47157 9.84386ZM26.6524 10.7814H3.34853L5.03954 23.4997C5.05468 23.613 5.11067 23.7168 5.197 23.7917C5.28332 23.8666 5.39402 23.9074 5.50829 23.9064H24.4927C24.6069 23.9074 24.7176 23.8666 24.804 23.7917C24.8903 23.7168 24.9463 23.613 24.9614 23.4997L26.6524 10.7814Z" fill="white"/>
</svg>
