<svg width="26" height="27" viewBox="0 0 26 27" fill="none" xmlns="http://www.w3.org/2000/svg">
<path d="M23.5119 3.25064C24.7852 4.68853 25.5 6.63524 25.5 8.66462C25.5 10.694 24.7852 12.6407 23.5119 14.0786L12.997 26L2.48197 14.0778C1.53619 13.0071 0.89224 11.6464 0.630749 10.1659C0.369257 8.68553 0.501841 7.15125 1.0119 5.75519C1.52196 4.35913 2.38683 3.16332 3.49824 2.31748C4.60964 1.47164 5.91819 1.01336 7.26005 1C9.05425 1.0117 10.7717 1.82038 12.0381 3.24989C12.4078 3.66156 12.7299 4.12392 12.997 4.62607C13.264 4.12419 13.5862 3.66208 13.9558 3.25064C14.5799 2.53807 15.3238 1.9722 16.1441 1.58596C16.9644 1.19972 17.8449 1.00082 18.7342 1.00082C19.6235 1.00082 20.5039 1.19972 21.3243 1.58596C22.1446 1.9722 22.8878 2.53807 23.5119 3.25064Z" stroke="#369479" stroke-linecap="round" stroke-linejoin="round"/>
</svg>
