<svg width="27" height="26" viewBox="0 0 27 26" fill="none" xmlns="http://www.w3.org/2000/svg">
<path d="M24.0119 2.75064C25.2852 4.18853 26 6.13524 26 8.16462C26 10.194 25.2852 12.1407 24.0119 13.5786L13.497 25.5L2.98197 13.5778C2.03619 12.5071 1.39224 11.1464 1.13075 9.66594C0.869257 8.18553 1.00184 6.65125 1.5119 5.25519C2.02196 3.85913 2.88683 2.66332 3.99824 1.81748C5.10964 0.971641 6.41819 0.513356 7.76005 0.5C9.55425 0.511698 11.2717 1.32038 12.5381 2.74989C12.9078 3.16156 13.2299 3.62392 13.497 4.12607C13.764 3.62418 14.0862 3.16208 14.4558 2.75064C15.0799 2.03807 15.8238 1.4722 16.6441 1.08596C17.4644 0.699724 18.3449 0.500818 19.2342 0.500818C20.1235 0.500818 21.0039 0.699724 21.8243 1.08596C22.6446 1.4722 23.3878 2.03807 24.0119 2.75064Z" stroke="white" stroke-linecap="round" stroke-linejoin="round"/>
</svg>
