<svg width="506" height="543" viewBox="0 0 506 543" fill="none" xmlns="http://www.w3.org/2000/svg">
<path d="M257.928 269.597L252.057 269.849L247.916 273.355L253.809 273.099L257.928 269.597Z" stroke="white" stroke-opacity="0.3" stroke-width="4.0529" stroke-miterlimit="10"/>
<path d="M247.132 271.9L253.519 273.387L258.736 271.052L252.349 269.566L247.132 271.9Z" stroke="white" stroke-opacity="0.3" stroke-width="4.0529" stroke-miterlimit="10"/>
<path d="M259.25 272.769L252.738 269.366L246.607 270.176L253.132 273.588L259.25 272.769Z" stroke="white" stroke-opacity="0.3" stroke-width="4.0529" stroke-miterlimit="10"/>
<path d="M246.429 268.28L252.676 273.685L259.439 274.673L253.192 269.268L246.429 268.28Z" stroke="white" stroke-opacity="0.3" stroke-width="4.0529" stroke-miterlimit="10"/>
<path d="M259.198 276.671L253.71 269.31L246.663 266.296L252.16 273.644L259.198 276.671Z" stroke="white" stroke-opacity="0.3" stroke-width="4.0529" stroke-miterlimit="10"/>
<path d="M247.35 264.329L251.612 273.446L258.506 278.613L254.248 269.519L247.35 264.329Z" stroke="white" stroke-opacity="0.3" stroke-width="4.0529" stroke-miterlimit="10"/>
<path d="M257.329 280.384L254.792 269.868L248.541 262.571L251.079 273.086L257.329 280.384Z" stroke="white" stroke-opacity="0.3" stroke-width="4.0529" stroke-miterlimit="10"/>
<path d="M250.208 261.114L250.581 272.557L255.662 281.841L255.289 270.399L250.208 261.114Z" stroke="white" stroke-opacity="0.3" stroke-width="4.0529" stroke-miterlimit="10"/>
<path d="M253.541 282.816L255.7 271.081L252.326 260.136L250.158 271.884L253.541 282.816Z" stroke="white" stroke-opacity="0.3" stroke-width="4.0529" stroke-miterlimit="10"/>
<path d="M254.811 259.77L249.858 271.061L251.045 283.169L255.988 271.891L254.811 259.77Z" stroke="white" stroke-opacity="0.3" stroke-width="4.0529" stroke-miterlimit="10"/>
<path d="M248.279 282.805L256.124 272.815L257.578 260.14L249.724 270.143L248.279 282.805Z" stroke="white" stroke-opacity="0.3" stroke-width="4.0529" stroke-miterlimit="10"/>
<path d="M260.452 261.352L249.796 269.17L245.393 281.604L256.071 273.783L260.452 261.352Z" stroke="white" stroke-opacity="0.3" stroke-width="4.0529" stroke-miterlimit="10"/>
<path d="M242.578 279.525L255.778 274.76L263.289 263.425L250.066 268.194L242.578 279.525Z" stroke="white" stroke-opacity="0.3" stroke-width="4.0529" stroke-miterlimit="10"/>
<path d="M265.861 266.382L250.594 267.297L239.996 276.582L255.263 275.666L265.861 266.382Z" stroke="white" stroke-opacity="0.3" stroke-width="4.0529" stroke-miterlimit="10"/>
<path d="M237.899 272.809L254.5 276.422L267.969 270.141L251.368 266.528L237.899 272.809Z" stroke="white" stroke-opacity="0.3" stroke-width="4.0529" stroke-miterlimit="10"/>
<path d="M269.378 274.588L252.345 265.975L236.475 268.355L253.508 276.969L269.378 274.588Z" stroke="white" stroke-opacity="0.3" stroke-width="4.0529" stroke-miterlimit="10"/>
<path d="M235.951 263.407L252.323 277.227L269.918 279.544L253.533 265.715L235.951 263.407Z" stroke="white" stroke-opacity="0.3" stroke-width="4.0529" stroke-miterlimit="10"/>
<path d="M269.376 284.717L254.868 265.81L236.49 258.236L250.998 277.142L269.376 284.717Z" stroke="white" stroke-opacity="0.3" stroke-width="4.0529" stroke-miterlimit="10"/>
<path d="M238.236 253.127L249.575 276.661L267.634 289.828L256.286 266.306L238.236 253.127Z" stroke="white" stroke-opacity="0.3" stroke-width="4.0529" stroke-miterlimit="10"/>
<path d="M264.611 294.496L257.691 267.219L241.235 248.462L248.169 275.747L264.611 294.496Z" stroke="white" stroke-opacity="0.3" stroke-width="4.0529" stroke-miterlimit="10"/>
<path d="M245.53 244.616L246.863 274.4L260.331 298.351L258.998 268.567L245.53 244.616Z" stroke="white" stroke-opacity="0.3" stroke-width="4.0529" stroke-miterlimit="10"/>
<path d="M254.859 300.974L260.107 270.32L250.988 241.981L245.749 272.623L254.859 300.974Z" stroke="white" stroke-opacity="0.3" stroke-width="4.0529" stroke-miterlimit="10"/>
<path d="M257.456 240.937L244.955 270.522L248.409 302.029L260.896 272.435L257.456 240.937Z" stroke="white" stroke-opacity="0.3" stroke-width="4.0529" stroke-miterlimit="10"/>
<path d="M241.23 301.164L261.283 274.82L264.641 241.788L244.587 268.132L241.23 301.164Z" stroke="white" stroke-opacity="0.3" stroke-width="4.0529" stroke-miterlimit="10"/>
<path d="M272.156 244.793L244.708 265.592L233.709 298.161L261.158 277.361L272.156 244.793Z" stroke="white" stroke-opacity="0.3" stroke-width="4.0529" stroke-miterlimit="10"/>
<path d="M226.297 292.872L260.435 279.899L279.549 250.083L245.411 263.057L226.297 292.872Z" stroke="white" stroke-opacity="0.3" stroke-width="4.0529" stroke-miterlimit="10"/>
<path d="M286.331 257.663L246.746 260.681L219.53 285.305L259.124 282.273L286.331 257.663Z" stroke="white" stroke-opacity="0.3" stroke-width="4.0529" stroke-miterlimit="10"/>
<path d="M213.944 275.584L257.161 284.283L291.916 267.384L248.694 258.662L213.944 275.584Z" stroke="white" stroke-opacity="0.3" stroke-width="4.0529" stroke-miterlimit="10"/>
<path d="M295.731 278.915L251.252 257.208L210.129 264.051L254.608 285.758L295.731 278.915Z" stroke="white" stroke-opacity="0.3" stroke-width="4.0529" stroke-miterlimit="10"/>
<path d="M208.596 251.185L251.534 286.476L297.26 291.756L254.322 256.465L208.596 251.185Z" stroke="white" stroke-opacity="0.3" stroke-width="4.0529" stroke-miterlimit="10"/>
<path d="M296.016 305.273L257.779 256.646L209.837 237.671L248.065 286.311L296.016 305.273Z" stroke="white" stroke-opacity="0.3" stroke-width="4.0529" stroke-miterlimit="10"/>
<path d="M214.21 224.303L244.394 285.097L291.661 318.648L261.477 257.854L214.21 224.303Z" stroke="white" stroke-opacity="0.3" stroke-width="4.0529" stroke-miterlimit="10"/>
<path d="M283.977 330.928L265.159 260.176L221.884 212.039L240.71 282.778L283.977 330.928Z" stroke="white" stroke-opacity="0.3" stroke-width="4.0529" stroke-miterlimit="10"/>
<path d="M232.891 201.835L237.267 279.327L272.98 341.117L268.604 263.626L232.891 201.835Z" stroke="white" stroke-opacity="0.3" stroke-width="4.0529" stroke-miterlimit="10"/>
<path d="M258.872 348.199L271.524 268.169L246.978 194.76L234.335 274.777L258.872 348.199Z" stroke="white" stroke-opacity="0.3" stroke-width="4.0529" stroke-miterlimit="10"/>
<path d="M263.716 191.753L232.214 269.308L242.137 351.186L273.644 273.654L263.716 191.753Z" stroke="white" stroke-opacity="0.3" stroke-width="4.0529" stroke-miterlimit="10"/>
<path d="M223.478 349.265L274.703 279.851L282.368 193.69L231.156 263.113L223.478 349.265Z" stroke="white" stroke-opacity="0.3" stroke-width="4.0529" stroke-miterlimit="10"/>
<path d="M301.988 201.2L231.409 256.495L203.877 341.751L274.456 286.456L301.988 201.2Z" stroke="white" stroke-opacity="0.3" stroke-width="4.0529" stroke-miterlimit="10"/>
<path d="M184.492 328.284L272.692 293.094L321.376 214.667L233.163 249.848L184.492 328.284Z" stroke="white" stroke-opacity="0.3" stroke-width="4.0529" stroke-miterlimit="10"/>
<path d="M339.195 234.113L236.533 243.622L166.671 308.838L269.333 299.33L339.195 234.113Z" stroke="white" stroke-opacity="0.3" stroke-width="4.0529" stroke-miterlimit="10"/>
<path d="M151.87 283.777L264.314 304.655L353.988 259.19L241.553 238.299L151.87 283.777Z" stroke="white" stroke-opacity="0.3" stroke-width="4.0529" stroke-miterlimit="10"/>
<path d="M364.257 289.053L248.134 234.375L141.588 253.9L257.733 308.575L364.257 289.053Z" stroke="white" stroke-opacity="0.3" stroke-width="4.0529" stroke-miterlimit="10"/>
<path d="M137.239 220.494L249.771 310.6L368.633 322.458L256.086 232.343L137.239 220.494Z" stroke="white" stroke-opacity="0.3" stroke-width="4.0529" stroke-miterlimit="10"/>
<path d="M365.824 357.703L265.075 232.655L140.045 185.247L240.772 310.299L365.824 357.703Z" stroke="white" stroke-opacity="0.3" stroke-width="4.0529" stroke-miterlimit="10"/>
<path d="M150.942 150.265L231.184 307.302L354.905 392.689L274.685 235.647L150.942 150.265Z" stroke="white" stroke-opacity="0.3" stroke-width="4.0529" stroke-miterlimit="10"/>
<path d="M335.362 424.974L284.31 241.55L170.483 117.981L221.548 301.414L335.362 424.974Z" stroke="white" stroke-opacity="0.3" stroke-width="4.0529" stroke-miterlimit="10"/>
<path d="M198.724 90.9871L212.505 292.552L307.144 451.965L293.363 250.4L198.724 90.9871Z" stroke="white" stroke-opacity="0.3" stroke-width="4.0529" stroke-miterlimit="10"/>
<path d="M270.759 470.978L301.078 262.086L235.106 71.9725L204.774 280.856L270.759 470.978Z" stroke="white" stroke-opacity="0.3" stroke-width="4.0529" stroke-miterlimit="10"/>
<path d="M278.446 63.4737L199.092 266.688L227.414 479.492L306.769 276.278L278.446 63.4737Z" stroke="white" stroke-opacity="0.3" stroke-width="4.0529" stroke-miterlimit="10"/>
<path d="M178.934 475.23L309.693 292.359L326.924 67.7312L196.16 250.58L178.934 475.23Z" stroke="white" stroke-opacity="0.3" stroke-width="4.0529" stroke-miterlimit="10"/>
<path d="M378.055 86.457L196.614 233.372L127.798 456.485L309.243 309.592L378.055 86.457Z" stroke="white" stroke-opacity="0.3" stroke-width="4.0529" stroke-miterlimit="10"/>
</svg>
