<svg width="229" height="66" viewBox="0 0 229 66" fill="none" xmlns="http://www.w3.org/2000/svg">
<path d="M66.3608 0.400879C65.5991 1.35297 65.1866 6.526 63.9488 31.8834C63.5045 40.7696 62.9967 50.0049 62.8381 52.3534C62.6794 54.7018 62.5207 57.1138 62.5207 57.6533C62.5207 58.2246 62.3937 58.7006 62.2351 58.7006C61.9177 58.7006 61.5686 52.5755 60.6165 29.9792C59.9183 12.8733 59.2518 3.89188 58.6171 2.52721C58.395 2.0829 57.9824 1.70207 57.6968 1.6386C56.8716 1.47991 56.2369 2.78111 55.8878 5.4787C55.3483 9.25533 54.1423 28.9002 53.095 50.3857C52.9998 52.7025 52.8094 54.6701 52.6507 54.7336C52.365 54.924 52.1746 52.5755 51.2543 35.8504C50.0483 13.9523 49.5088 7.54156 48.8423 6.27211C48.6836 5.95475 48.2393 5.70086 47.8902 5.70086C46.3669 5.70086 46.0495 8.33498 44.431 35.057C43.6375 48.1959 43.4471 50.4809 43.1615 50.2905C43.0345 50.227 42.8441 48.8941 42.7489 47.3707C42.622 45.8474 42.1777 39.5636 41.7334 33.4702C40.4956 16.1104 39.9561 12.3655 38.5915 12.3655C36.9729 12.3655 36.5286 15.0948 34.7196 35.057C34.2753 40.2935 33.7675 44.7049 33.6406 44.8318C33.3549 45.1492 33.228 44.1971 32.2124 33.9462C31.7681 29.5031 31.1651 24.6475 30.9112 23.1559C30.2765 19.6649 29.3562 18.5858 28.1502 19.9188C27.452 20.6804 27.1029 22.4894 26.1825 29.9157C25.167 38.1672 24.6274 40.9282 24.1514 40.9282C23.8023 40.9282 23.0089 37.0247 22.2155 31.566C21.4538 26.393 21.1364 25.187 20.2796 24.7427C19.5496 24.3301 18.5975 24.7744 18.0897 25.6948C17.8993 26.0439 17.2646 28.2337 16.6616 30.6139C16.0586 32.9624 15.3604 35.4061 15.1065 36.0091L14.6305 37.1199H7.33111H0V38.072V39.0241H7.61673H15.2652L15.9951 38.2307C16.4712 37.7229 17.0742 36.2313 17.6137 34.1684C18.0897 32.3912 18.7245 30.1696 18.9784 29.2175C19.264 28.075 19.5179 27.6624 19.6766 27.9481C19.8035 28.202 20.2161 30.5504 20.5969 33.2163C21.676 40.833 22.4694 43.1815 24.0562 43.4037C24.9448 43.5306 25.8969 42.5151 26.3412 41.0235C26.722 39.6271 27.7059 33.0576 28.2771 28.075C28.9436 21.8229 29.1657 22.2673 30.1496 32.0421C31.6094 46.4504 31.9585 48.7037 32.8789 49.6558C33.5136 50.2587 33.7358 50.2587 34.3388 49.5605C35.2274 48.5767 35.7034 45.1175 37.4489 25.6948C37.8298 21.6008 38.2424 18.1098 38.3693 17.9828C38.6867 17.6337 38.8453 19.2523 39.9879 34.7397C40.4956 41.8803 41.0034 48.545 41.0986 49.4971C41.4795 52.9881 41.9555 56.003 42.2411 56.5426C42.622 57.2408 43.5741 57.2725 44.1136 56.6378C44.78 55.8126 45.3196 50.2905 46.4938 31.566C47.1285 21.6325 47.6998 13.4445 47.7633 13.3493C48.0806 13.0637 48.2393 14.5236 48.7154 23.1559C50.4926 55.1144 50.9686 61.0491 51.7303 62.4773C52.2064 63.4294 53.1585 63.3024 53.6028 62.2551C54.2375 60.6683 54.777 54.0354 55.6974 36.3265C56.586 19.5062 57.2525 9.28707 57.4746 9.03318C57.6333 8.87449 57.7602 9.06491 57.7602 9.50922C57.7602 9.95353 57.8872 12.5877 58.0776 15.3805C58.2363 18.1733 58.5854 25.7265 58.871 32.2007C59.7596 53.7815 60.3309 62.3821 60.9656 64.794C61.2195 65.8413 61.4099 66 62.1716 66C62.9967 66 63.1237 65.8731 63.441 64.4767C64.2662 60.7952 65.5991 40.23 66.5512 16.6499C66.9321 7.19246 67.2812 8.6206 67.9159 22.0451C69.344 52.2899 69.9787 62.1599 70.6135 63.6832C71.153 64.9527 72.232 65.1114 72.6446 64.0006C73.2159 62.509 73.6602 56.5426 74.7392 36.1678C75.8182 15.7613 76.2308 9.73138 76.5482 9.35054C76.7069 9.19186 76.8021 9.3188 76.8021 9.6679C76.8021 10.017 76.929 12.1433 77.1194 14.4284C77.2781 16.6816 77.6272 23.1876 77.9128 28.8684C78.7697 46.4504 79.341 56.2887 79.6583 58.2246C80.0392 60.6048 80.8009 61.2395 81.6895 59.8749C82.4194 58.7641 82.705 55.7491 84.4188 29.9792C85.3074 16.8403 85.4344 15.2218 85.6883 15.0631C85.9739 14.8727 86.1643 16.8403 87.1164 31.4073C88.3859 50.5444 88.9254 54.0989 90.5122 53.8767C92.226 53.6545 92.4481 52.2264 94.2888 29.5031C95.2409 17.7924 95.3996 17.8242 96.4786 29.9792C97.5894 42.2294 98.2241 45.4031 99.6523 45.8474C101.43 46.4186 102.445 43.7528 103.937 34.8983C105.365 26.2978 106 24.2984 106.507 26.5517C106.603 27.0594 106.825 27.9481 106.952 28.5511C107.11 29.154 107.682 32.2325 108.221 35.3744C109.364 42.166 109.967 44.324 110.855 45.2761C111.712 46.1965 112.156 46.1965 112.918 45.2127C113.711 44.1971 114.124 41.7534 114.727 33.9462C115.267 26.9642 115.489 25.3774 115.87 25.3774C116.028 25.3774 116.155 25.4409 116.155 25.5361C116.155 26.5199 117.583 34.3588 117.932 35.1522C118.377 36.2313 119.392 36.8025 120.376 36.5486C121.296 36.3265 122.376 33.5971 122.979 29.9792C123.931 24.5523 124.121 25.1235 124.883 35.1205C125.39 41.6899 125.549 42.9911 126.025 44.6414C126.692 46.7677 128.501 46.0695 129.294 43.4037C129.834 41.436 130.468 37.342 131.547 28.4241C132.436 21.2517 132.595 20.2996 132.944 20.2996C133.229 20.2996 133.578 23.8541 134.562 36.4852C135.705 50.6713 136.276 53.9402 137.736 53.9402C139.513 53.9402 139.862 51.4647 141.417 27.9163C141.862 21.0295 142.369 15.2535 142.528 15.0631C142.719 14.9044 142.814 14.9996 142.814 15.3805C142.814 15.7296 142.941 17.5068 143.131 19.3475C143.29 21.1882 143.639 26.1708 143.925 30.4552C144.877 45.4031 145.702 56.0982 145.987 57.939C146.305 59.8114 146.939 60.7 147.733 60.4144C147.955 60.3192 148.241 60.0336 148.336 59.7479C148.717 58.7958 149.161 53.2737 149.637 43.6258C150.621 23.6954 150.748 20.9661 151.129 15.2852C151.319 12.1116 151.573 9.50922 151.7 9.50922C152.049 9.50922 152.557 17.0625 153.604 37.2786C154.207 49.1162 154.905 59.8114 155.191 61.8108C155.477 64.0006 155.889 64.7305 156.778 64.7305C158.142 64.7305 158.46 61.43 159.793 34.1049C160.65 16.1421 160.999 10.4296 161.221 10.6835C161.348 10.8104 161.633 14.587 161.824 19.0301C163.347 51.0839 164.236 63.8737 165.061 65.4287C165.251 65.7461 165.696 66 166.14 66C167.79 66 168.044 63.4611 169.314 34.581C170.297 12.0799 170.488 9.19186 170.742 9.03318C171.059 8.84276 171.599 16.9038 172.805 40.1348C173.439 52.512 174.169 61.1761 174.645 62.1916C174.868 62.6042 175.28 63.0168 175.566 63.0803C177.184 63.3976 177.502 60.4779 178.993 33.3115C179.342 26.7738 179.787 19.6331 179.945 17.4751C180.421 10.7469 180.644 11.7625 181.373 24.108C183.087 53.9719 183.405 56.8282 184.928 57.0503C186.547 57.2725 186.8 55.4635 188.355 33.9462C189.403 19.5697 189.53 18.078 189.784 17.9194C190.069 17.7289 190.164 18.6493 191.37 31.566C192.735 46.5773 193.116 49.021 194.036 49.8144C194.766 50.3857 195.75 49.6558 196.099 48.2911C196.575 46.4504 196.988 43.2133 197.718 36.1678C198.606 27.0594 199.019 23.7906 199.273 23.7906C199.4 23.7906 199.876 26.996 200.352 30.8996C201.526 40.4205 202.415 43.4989 204.033 43.4672C205.176 43.4354 205.969 42.3247 206.54 39.9762C206.826 38.7702 208.508 28.3289 208.508 27.6942C208.508 27.5672 208.635 27.599 208.794 27.7894C208.952 27.9481 209.524 29.7888 210.063 31.9151C211.237 36.5486 211.523 37.4055 212.38 38.2941C213.046 39.0241 213.173 39.0241 220.79 39.0241H228.502V38.072V37.1199H221.044C214.189 37.1199 213.586 37.0881 213.3 36.5486C213.142 36.2313 212.57 34.2636 212.031 32.169C210.222 24.9966 209.27 23.378 207.746 24.9014C207.08 25.5996 206.763 26.9008 205.811 33.1528C204.922 39.0241 204.478 40.9282 204.097 40.9282C203.684 40.9282 203.176 38.072 202.161 30.2013C201.621 26.0756 201.05 22.1403 200.86 21.5056C200.542 20.2044 199.812 19.3475 199.146 19.3475C197.813 19.3475 197.242 22.2355 195.972 35.057C195.528 39.5953 195.052 43.7211 194.893 44.2606L194.639 45.2127L194.449 44.1019C194.322 43.4989 193.782 38.1354 193.275 32.2007C191.72 15.0948 191.243 12.3655 189.847 12.3655C188.832 12.3655 188.546 13.0637 188.038 16.3643C187.689 18.7762 185.341 48.0055 185.341 50.0683C185.341 50.2905 185.214 50.4174 185.087 50.3222C184.769 50.1318 184.706 48.9893 183.754 33.1528C182.548 13.0002 181.945 6.93857 181.088 6.08169C180.485 5.4787 179.691 5.79606 179.311 6.84336C178.676 8.49366 177.629 23.0924 176.264 49.8144C176.137 52.0043 175.947 54.0671 175.82 54.4162C175.471 55.3366 175.28 52.8611 174.55 38.548C172.963 7.82719 172.456 2.24159 171.186 1.76554C169.06 0.940392 168.869 2.90805 167.409 35.8504C166.553 55.3683 166.33 58.8593 165.981 58.4785C165.727 58.1928 165.347 52.0043 164.236 29.9792C163.03 5.57391 162.712 1.57513 161.887 0.591293C161.348 -0.0751724 160.459 0.0200424 160.142 0.781715C159.666 2.0829 159.031 10.8422 158.206 28.5511C157.508 42.8959 156.81 55.2731 156.651 55.4318C156.429 55.6857 156.175 51.9408 155.35 35.5331C154.144 11.9212 153.477 4.33619 152.43 3.32063C151.827 2.71763 151.605 2.71763 150.97 3.3841C149.796 4.74876 149.415 9.69964 147.701 46.0695C147.574 48.6402 147.384 50.6713 147.257 50.6079C147.13 50.5444 146.939 48.9893 146.844 47.2121C145.099 18.9349 144.337 10.4613 143.385 9.25533C142.877 8.68407 141.925 8.81102 141.544 9.50922C140.91 10.6835 140.275 16.5864 139.481 28.8684C138.498 44.0067 138.022 49.1797 137.672 49.1797C137.546 49.1797 137.419 48.8941 137.419 48.5767C137.419 48.2276 137.196 45.6252 136.943 42.769C136.689 39.9127 136.181 33.9462 135.832 29.5031C135.165 21.3469 134.562 17.4433 133.896 16.6182C133.356 15.9517 132.404 16.0787 131.896 16.8721C131.198 17.9511 130.849 19.7283 129.802 27.9163C128.469 38.3259 127.866 42.166 127.549 42.3881C127.39 42.4833 127.263 42.3881 127.263 42.1977C127.263 40.4205 126.184 28.4558 125.835 26.5199C125.327 23.6954 124.629 22.6164 123.486 22.9972C122.598 23.2828 122.09 24.5523 121.423 28.2337C120.725 32.169 119.995 34.7397 119.646 34.3906C119.519 34.2319 119.075 32.2007 118.694 29.8522C118.313 27.5038 117.837 25.1235 117.583 24.5523C116.822 22.6798 115.013 22.3625 114.283 23.981C113.616 25.4726 113.331 27.3768 112.855 33.9462C112.283 41.2139 112.093 42.8324 111.712 42.8324C111.585 42.8324 111.395 42.4516 111.3 41.9438C111.236 41.4678 110.76 38.9289 110.316 36.3265C108.126 24.0128 107.301 21.9182 105.238 23.2511C104.191 23.9493 103.778 25.4409 102.191 34.1049C100.763 41.9756 100.573 42.8007 100.128 42.8959C99.684 43.0229 99.1762 39.278 98.3828 30.487C97.3355 18.6493 96.7643 16.1739 95.1774 16.1739C93.6858 16.1739 93.305 18.5224 91.8769 36.1678C90.9565 47.6564 90.7661 49.3067 90.4487 48.9576C90.1948 48.7037 89.5284 40.3887 88.7032 27.4403C88.0368 17.3798 87.402 10.9374 86.8942 9.89006C86.3865 8.84276 85.2122 8.58887 84.7996 9.41401C83.9745 10.9374 83.3715 17.0942 82.0386 37.9133C81.5625 44.8953 81.15 50.6396 81.0865 50.7348C80.8009 50.9887 80.6422 48.8941 80.2931 40.7696C79.8488 29.3762 79.0871 15.6661 78.7063 10.7787C78.2619 5.4787 77.8494 3.54278 77.1194 3.16194C76.2943 2.71763 76.2626 2.74937 75.723 3.57452C74.7075 5.06613 74.1045 12.3972 72.835 37.7546C72.359 46.9264 71.8829 54.7018 71.756 55.0509C71.5973 55.4318 71.4069 54.1941 71.2799 51.8773C70.8991 45.054 70.4865 36.5169 69.9787 26.4882C69.0267 7.00204 68.5823 1.25776 67.8841 0.43261C67.4398 -0.138641 66.8368 -0.138641 66.3608 0.400879Z" fill="#CA8448"/>
</svg>
